<mxfile host="app.diagrams.net" modified="2021-03-17T21:44:51.317Z" agent="5.0 (Macintosh; Intel Mac OS X 10_15_7) AppleWebKit/605.1.15 (KHTML, like Gecko) Version/13.1.3 Safari/605.1.15" etag="TSworFak1vOEL_lEaJ9k" version="14.4.9" type="github">
  <diagram id="C5RBs43oDa-KdzZeNtuy" name="Page-1">
    <mxGraphModel dx="939" dy="566" grid="1" gridSize="10" guides="1" tooltips="1" connect="1" arrows="1" fold="1" page="1" pageScale="1" pageWidth="827" pageHeight="1169" math="0" shadow="0">
      <root>
        <mxCell id="WIyWlLk6GJQsqaUBKTNV-0" />
        <mxCell id="WIyWlLk6GJQsqaUBKTNV-1" parent="WIyWlLk6GJQsqaUBKTNV-0" />
        <mxCell id="zkfFHV4jXpPFQw0GAbJ--6" value="Flag" style="swimlane;fontStyle=0;align=center;verticalAlign=top;childLayout=stackLayout;horizontal=1;startSize=26;horizontalStack=0;resizeParent=1;resizeLast=0;collapsible=1;marginBottom=0;rounded=0;shadow=0;strokeWidth=1;" parent="WIyWlLk6GJQsqaUBKTNV-1" vertex="1">
          <mxGeometry x="20" y="650" width="180" height="164" as="geometry">
            <mxRectangle x="130" y="380" width="160" height="26" as="alternateBounds" />
          </mxGeometry>
        </mxCell>
        <mxCell id="zkfFHV4jXpPFQw0GAbJ--9" value="" style="line;html=1;strokeWidth=1;align=left;verticalAlign=middle;spacingTop=-1;spacingLeft=3;spacingRight=3;rotatable=0;labelPosition=right;points=[];portConstraint=eastwest;" parent="zkfFHV4jXpPFQw0GAbJ--6" vertex="1">
          <mxGeometry y="26" width="180" height="8" as="geometry" />
        </mxCell>
        <mxCell id="P4YoX4A1AHJnhwDKQdfE-18" value="+cpp_type(): str&lt;br&gt;+default_value(): str&lt;br&gt;+base_type(): str&lt;br&gt;+builder_serialization_code(): str&lt;br&gt;-_add_shift(): str&lt;br&gt;-_add_mask(): str&lt;br&gt;-_add_return(): str&lt;br&gt;+to_string_code(): str&lt;br&gt;+validation_code(): str" style="text;html=1;align=left;verticalAlign=middle;resizable=0;points=[];autosize=1;" vertex="1" parent="zkfFHV4jXpPFQw0GAbJ--6">
          <mxGeometry y="34" width="180" height="130" as="geometry" />
        </mxCell>
        <mxCell id="zkfFHV4jXpPFQw0GAbJ--12" value="" style="endArrow=block;endSize=10;endFill=0;shadow=0;strokeWidth=1;rounded=0;edgeStyle=elbowEdgeStyle;elbow=vertical;entryX=0.5;entryY=1;entryDx=0;entryDy=0;" parent="WIyWlLk6GJQsqaUBKTNV-1" source="zkfFHV4jXpPFQw0GAbJ--6" target="P4YoX4A1AHJnhwDKQdfE-5" edge="1">
          <mxGeometry width="160" relative="1" as="geometry">
            <mxPoint x="100" y="363" as="sourcePoint" />
            <mxPoint x="340" y="320" as="targetPoint" />
          </mxGeometry>
        </mxCell>
        <mxCell id="zkfFHV4jXpPFQw0GAbJ--13" value="EnumReference" style="swimlane;fontStyle=0;align=center;verticalAlign=top;childLayout=stackLayout;horizontal=1;startSize=26;horizontalStack=0;resizeParent=1;resizeLast=0;collapsible=1;marginBottom=0;rounded=0;shadow=0;strokeWidth=1;" parent="WIyWlLk6GJQsqaUBKTNV-1" vertex="1">
          <mxGeometry x="235" y="650" width="125" height="114" as="geometry">
            <mxRectangle x="340" y="380" width="170" height="26" as="alternateBounds" />
          </mxGeometry>
        </mxCell>
        <mxCell id="zkfFHV4jXpPFQw0GAbJ--15" value="" style="line;html=1;strokeWidth=1;align=left;verticalAlign=middle;spacingTop=-1;spacingLeft=3;spacingRight=3;rotatable=0;labelPosition=right;points=[];portConstraint=eastwest;" parent="zkfFHV4jXpPFQw0GAbJ--13" vertex="1">
          <mxGeometry y="26" width="125" height="8" as="geometry" />
        </mxCell>
        <mxCell id="P4YoX4A1AHJnhwDKQdfE-14" value="+cpp_type(): str&lt;br&gt;+default_value(): str&lt;br&gt;+base_type(): str&lt;br&gt;+to_string_code(): str&lt;br&gt;+validation_code(): str" style="text;html=1;align=left;verticalAlign=middle;resizable=0;points=[];autosize=1;" vertex="1" parent="zkfFHV4jXpPFQw0GAbJ--13">
          <mxGeometry y="34" width="125" height="80" as="geometry" />
        </mxCell>
        <mxCell id="zkfFHV4jXpPFQw0GAbJ--16" value="" style="endArrow=block;endSize=10;endFill=0;shadow=0;strokeWidth=1;rounded=0;edgeStyle=elbowEdgeStyle;elbow=vertical;entryX=0.505;entryY=1;entryDx=0;entryDy=0;entryPerimeter=0;" parent="WIyWlLk6GJQsqaUBKTNV-1" source="zkfFHV4jXpPFQw0GAbJ--13" target="P4YoX4A1AHJnhwDKQdfE-24" edge="1">
          <mxGeometry width="160" relative="1" as="geometry">
            <mxPoint x="110" y="533" as="sourcePoint" />
            <mxPoint x="340" y="320" as="targetPoint" />
          </mxGeometry>
        </mxCell>
        <mxCell id="P4YoX4A1AHJnhwDKQdfE-1" value="Collection" style="swimlane;fontStyle=0;align=center;verticalAlign=top;childLayout=stackLayout;horizontal=1;startSize=26;horizontalStack=0;resizeParent=1;resizeLast=0;collapsible=1;marginBottom=0;rounded=0;shadow=0;strokeWidth=1;" vertex="1" parent="WIyWlLk6GJQsqaUBKTNV-1">
          <mxGeometry x="500" y="380" width="180" height="194" as="geometry">
            <mxRectangle x="340" y="380" width="170" height="26" as="alternateBounds" />
          </mxGeometry>
        </mxCell>
        <mxCell id="P4YoX4A1AHJnhwDKQdfE-2" value="" style="line;html=1;strokeWidth=1;align=left;verticalAlign=middle;spacingTop=-1;spacingLeft=3;spacingRight=3;rotatable=0;labelPosition=right;points=[];portConstraint=eastwest;" vertex="1" parent="P4YoX4A1AHJnhwDKQdfE-1">
          <mxGeometry y="26" width="180" height="8" as="geometry" />
        </mxCell>
        <mxCell id="P4YoX4A1AHJnhwDKQdfE-15" value="+cpp_type(): str&lt;br&gt;+default_value(): str&lt;br&gt;+view_getter_code(): str&lt;br&gt;+includes(): [str]&lt;br&gt;+builder_parameter_code(): str&lt;br&gt;+builder_field_code(): str&lt;br&gt;+builder_setter_code(): str&lt;br&gt;+builder_getter_code(): str&lt;br&gt;+to_string_prep(): str&lt;br&gt;+to_string_code(): str&lt;br&gt;+builder_serialize_code(): str&lt;br&gt;" style="text;html=1;align=left;verticalAlign=middle;resizable=0;points=[];autosize=1;" vertex="1" parent="P4YoX4A1AHJnhwDKQdfE-1">
          <mxGeometry y="34" width="180" height="160" as="geometry" />
        </mxCell>
        <mxCell id="P4YoX4A1AHJnhwDKQdfE-3" value="Float32" style="swimlane;fontStyle=0;align=center;verticalAlign=top;childLayout=stackLayout;horizontal=1;startSize=26;horizontalStack=0;resizeParent=1;resizeLast=0;collapsible=1;marginBottom=0;rounded=0;shadow=0;strokeWidth=1;" vertex="1" parent="WIyWlLk6GJQsqaUBKTNV-1">
          <mxGeometry x="230" y="380" width="120" height="64" as="geometry">
            <mxRectangle x="340" y="380" width="170" height="26" as="alternateBounds" />
          </mxGeometry>
        </mxCell>
        <mxCell id="P4YoX4A1AHJnhwDKQdfE-4" value="" style="line;html=1;strokeWidth=1;align=left;verticalAlign=middle;spacingTop=-1;spacingLeft=3;spacingRight=3;rotatable=0;labelPosition=right;points=[];portConstraint=eastwest;" vertex="1" parent="P4YoX4A1AHJnhwDKQdfE-3">
          <mxGeometry y="26" width="120" height="8" as="geometry" />
        </mxCell>
        <mxCell id="P4YoX4A1AHJnhwDKQdfE-22" value="&lt;span&gt;+cpp_type(): str&lt;/span&gt;&lt;br&gt;&lt;span&gt;+default_value(): str&lt;/span&gt;" style="text;html=1;align=left;verticalAlign=middle;resizable=0;points=[];autosize=1;" vertex="1" parent="P4YoX4A1AHJnhwDKQdfE-3">
          <mxGeometry y="34" width="120" height="30" as="geometry" />
        </mxCell>
        <mxCell id="P4YoX4A1AHJnhwDKQdfE-5" value="Integer" style="swimlane;fontStyle=0;align=center;verticalAlign=top;childLayout=stackLayout;horizontal=1;startSize=26;horizontalStack=0;resizeParent=1;resizeLast=0;collapsible=1;marginBottom=0;rounded=0;shadow=0;strokeWidth=1;" vertex="1" parent="WIyWlLk6GJQsqaUBKTNV-1">
          <mxGeometry x="10" y="380" width="200" height="234" as="geometry">
            <mxRectangle x="340" y="380" width="170" height="26" as="alternateBounds" />
          </mxGeometry>
        </mxCell>
        <mxCell id="P4YoX4A1AHJnhwDKQdfE-6" value="" style="line;html=1;strokeWidth=1;align=left;verticalAlign=middle;spacingTop=-1;spacingLeft=3;spacingRight=3;rotatable=0;labelPosition=right;points=[];portConstraint=eastwest;" vertex="1" parent="P4YoX4A1AHJnhwDKQdfE-5">
          <mxGeometry y="26" width="200" height="8" as="geometry" />
        </mxCell>
        <mxCell id="P4YoX4A1AHJnhwDKQdfE-24" value="&lt;div style=&quot;text-align: left&quot;&gt;+cpp_type(): str&lt;/div&gt;&lt;div style=&quot;text-align: left&quot;&gt;+default_value(): str&lt;/div&gt;&lt;div style=&quot;text-align: left&quot;&gt;+base_type(): str&lt;/div&gt;&lt;div style=&quot;text-align: left&quot;&gt;+builder_serialization_code(): str&lt;/div&gt;&lt;div style=&quot;text-align: left&quot;&gt;+builder_setter_code(): str&lt;/div&gt;&lt;div style=&quot;text-align: left&quot;&gt;+view_getter_code(): str&lt;/div&gt;&lt;div style=&quot;text-align: left&quot;&gt;-_body(): str&lt;/div&gt;&lt;div style=&quot;text-align: left&quot;&gt;-_add_shift(): str&lt;/div&gt;&lt;div style=&quot;text-align: left&quot;&gt;-_add_mask(): str&lt;/div&gt;&lt;div style=&quot;text-align: left&quot;&gt;-_add_return(): str&lt;/div&gt;&lt;div style=&quot;text-align: left&quot;&gt;-_issigned(): str&lt;/div&gt;&lt;div style=&quot;text-align: left&quot;&gt;+validation_code(): str&lt;/div&gt;&lt;div style=&quot;text-align: left&quot;&gt;+to_string_code(): str&lt;/div&gt;&lt;div style=&quot;text-align: left&quot;&gt;+&lt;u&gt;to_cpp_type(): str&lt;/u&gt;&lt;/div&gt;" style="text;html=1;align=center;verticalAlign=middle;resizable=0;points=[];autosize=1;" vertex="1" parent="P4YoX4A1AHJnhwDKQdfE-5">
          <mxGeometry y="34" width="200" height="200" as="geometry" />
        </mxCell>
        <mxCell id="P4YoX4A1AHJnhwDKQdfE-7" value="" style="endArrow=block;endSize=10;endFill=0;shadow=0;strokeWidth=1;rounded=0;edgeStyle=elbowEdgeStyle;elbow=vertical;exitX=0.5;exitY=0;exitDx=0;exitDy=0;entryX=0.5;entryY=1;entryDx=0;entryDy=0;" edge="1" parent="WIyWlLk6GJQsqaUBKTNV-1" source="P4YoX4A1AHJnhwDKQdfE-1" target="P4YoX4A1AHJnhwDKQdfE-10">
          <mxGeometry width="160" relative="1" as="geometry">
            <mxPoint x="320" y="530" as="sourcePoint" />
            <mxPoint x="340" y="320" as="targetPoint" />
          </mxGeometry>
        </mxCell>
        <mxCell id="P4YoX4A1AHJnhwDKQdfE-8" value="" style="endArrow=block;endSize=10;endFill=0;shadow=0;strokeWidth=1;rounded=0;edgeStyle=elbowEdgeStyle;elbow=vertical;exitX=0.5;exitY=0;exitDx=0;exitDy=0;entryX=0.5;entryY=1;entryDx=0;entryDy=0;" edge="1" parent="WIyWlLk6GJQsqaUBKTNV-1" source="P4YoX4A1AHJnhwDKQdfE-5" target="P4YoX4A1AHJnhwDKQdfE-10">
          <mxGeometry width="160" relative="1" as="geometry">
            <mxPoint x="330" y="540" as="sourcePoint" />
            <mxPoint x="590" y="320" as="targetPoint" />
          </mxGeometry>
        </mxCell>
        <mxCell id="P4YoX4A1AHJnhwDKQdfE-9" value="" style="endArrow=block;endSize=10;endFill=0;shadow=0;strokeWidth=1;rounded=0;edgeStyle=elbowEdgeStyle;elbow=vertical;exitX=0.5;exitY=0;exitDx=0;exitDy=0;" edge="1" parent="WIyWlLk6GJQsqaUBKTNV-1" source="P4YoX4A1AHJnhwDKQdfE-3" target="P4YoX4A1AHJnhwDKQdfE-13">
          <mxGeometry width="160" relative="1" as="geometry">
            <mxPoint x="340" y="550" as="sourcePoint" />
            <mxPoint x="380" y="320" as="targetPoint" />
          </mxGeometry>
        </mxCell>
        <mxCell id="P4YoX4A1AHJnhwDKQdfE-10" value="Field" style="swimlane;fontStyle=1;align=center;verticalAlign=top;childLayout=stackLayout;horizontal=1;startSize=26;horizontalStack=0;resizeParent=1;resizeParentMax=0;resizeLast=0;collapsible=1;marginBottom=0;" vertex="1" parent="WIyWlLk6GJQsqaUBKTNV-1">
          <mxGeometry x="230" y="20" width="220" height="280" as="geometry">
            <mxRectangle x="450" y="20" width="60" height="26" as="alternateBounds" />
          </mxGeometry>
        </mxCell>
        <mxCell id="P4YoX4A1AHJnhwDKQdfE-11" value="+ field: type" style="text;strokeColor=none;fillColor=none;align=left;verticalAlign=top;spacingLeft=4;spacingRight=4;overflow=hidden;rotatable=0;points=[[0,0.5],[1,0.5]];portConstraint=eastwest;" vertex="1" parent="P4YoX4A1AHJnhwDKQdfE-10">
          <mxGeometry y="26" width="220" height="26" as="geometry" />
        </mxCell>
        <mxCell id="P4YoX4A1AHJnhwDKQdfE-12" value="" style="line;strokeWidth=1;fillColor=none;align=left;verticalAlign=middle;spacingTop=-1;spacingLeft=3;spacingRight=3;rotatable=0;labelPosition=right;points=[];portConstraint=eastwest;" vertex="1" parent="P4YoX4A1AHJnhwDKQdfE-10">
          <mxGeometry y="52" width="220" height="8" as="geometry" />
        </mxCell>
        <mxCell id="P4YoX4A1AHJnhwDKQdfE-13" value="+ name(): str&#xa;+ view_getter_code(): str&#xa;+ builder_setter_code(): str&#xa;+ builder_getter_code(): str&#xa;+ builder_serialize_code(): str&#xa;+ builder_parameter_code(): str&#xa;+ builder_initializer_code(): str&#xa;+ builder_field_code(): str&#xa;+ defines(): [str]&#xa;+ _offset_name(): str&#xa;+ validation_code(variable_name): str&#xa;+ to_string_prep(): str&#xa;+ to_string_code(): str&#xa;+ includes(): [str]" style="text;strokeColor=none;fillColor=none;align=left;verticalAlign=top;spacingLeft=4;spacingRight=4;overflow=hidden;rotatable=0;points=[[0,0.5],[1,0.5]];portConstraint=eastwest;" vertex="1" parent="P4YoX4A1AHJnhwDKQdfE-10">
          <mxGeometry y="60" width="220" height="220" as="geometry" />
        </mxCell>
        <mxCell id="P4YoX4A1AHJnhwDKQdfE-19" value="Float64" style="swimlane;fontStyle=0;align=center;verticalAlign=top;childLayout=stackLayout;horizontal=1;startSize=26;horizontalStack=0;resizeParent=1;resizeLast=0;collapsible=1;marginBottom=0;rounded=0;shadow=0;strokeWidth=1;" vertex="1" parent="WIyWlLk6GJQsqaUBKTNV-1">
          <mxGeometry x="360" y="380" width="120" height="64" as="geometry">
            <mxRectangle x="340" y="380" width="170" height="26" as="alternateBounds" />
          </mxGeometry>
        </mxCell>
        <mxCell id="P4YoX4A1AHJnhwDKQdfE-20" value="" style="line;html=1;strokeWidth=1;align=left;verticalAlign=middle;spacingTop=-1;spacingLeft=3;spacingRight=3;rotatable=0;labelPosition=right;points=[];portConstraint=eastwest;" vertex="1" parent="P4YoX4A1AHJnhwDKQdfE-19">
          <mxGeometry y="26" width="120" height="8" as="geometry" />
        </mxCell>
        <mxCell id="P4YoX4A1AHJnhwDKQdfE-23" value="&lt;span&gt;+cpp_type(): str&lt;/span&gt;&lt;br&gt;&lt;div&gt;&lt;div&gt;+default_value(): str&lt;/div&gt;&lt;/div&gt;" style="text;html=1;align=left;verticalAlign=middle;resizable=0;points=[];autosize=1;" vertex="1" parent="P4YoX4A1AHJnhwDKQdfE-19">
          <mxGeometry y="34" width="120" height="30" as="geometry" />
        </mxCell>
        <mxCell id="P4YoX4A1AHJnhwDKQdfE-21" value="" style="endArrow=block;endSize=10;endFill=0;shadow=0;strokeWidth=1;rounded=0;edgeStyle=elbowEdgeStyle;elbow=vertical;exitX=0.5;exitY=0;exitDx=0;exitDy=0;entryX=0.5;entryY=1;entryDx=0;entryDy=0;entryPerimeter=0;" edge="1" parent="WIyWlLk6GJQsqaUBKTNV-1" source="P4YoX4A1AHJnhwDKQdfE-19" target="P4YoX4A1AHJnhwDKQdfE-13">
          <mxGeometry width="160" relative="1" as="geometry">
            <mxPoint x="270" y="390" as="sourcePoint" />
            <mxPoint x="370" y="320" as="targetPoint" />
          </mxGeometry>
        </mxCell>
      </root>
    </mxGraphModel>
  </diagram>
</mxfile>
